<?xml version="1.0" encoding="UTF-8" standalone="no"?>
<!DOCTYPE svg PUBLIC "-//W3C//DTD SVG 1.1//EN" "http://www.w3.org/Graphics/SVG/1.1/DTD/svg11.dtd">
<svg width="100%" height="100%" viewBox="0 0 2720 2720" version="1.1" xmlns="http://www.w3.org/2000/svg" xmlns:xlink="http://www.w3.org/1999/xlink" xml:space="preserve" xmlns:serif="http://www.serif.com/" style="fill-rule:evenodd;clip-rule:evenodd;stroke-linejoin:round;stroke-miterlimit:2;">
    <g transform="matrix(1,0,0,1,-2728.213013,-61.152342)">
        <g transform="matrix(1.170902,0,0,1.136318,-436.824242,0)">
            <g transform="matrix(1.150993,0,0,0.880036,-828.481144,-60.406611)">
                <g transform="matrix(0.742006,0,0,1,2529.715982,-374.318563)">
                    <g transform="matrix(-0.606755,-0.794889,0.794889,-0.606755,-69.695915,5156.439917)">
                        <g transform="matrix(1,0,0,1,1240.64,2595.46)">
                            <text x="0px" y="0px" style="font-family:'Castellar', sans-serif;font-size:200px;fill:rgb(197,165,90);stroke:rgb(197,165,90);stroke-width:1px;">T</text>
                        </g>
                    </g>
                    <g transform="matrix(-0.441488,-0.897267,0.897267,-0.441488,-566.295445,4514.470632)">
                        <g transform="matrix(1,0,0,1,1121.889,2433.483)">
                            <text x="0px" y="0px" style="font-family:'Castellar', sans-serif;font-size:200px;fill:rgb(197,165,90);stroke:rgb(197,165,90);stroke-width:1px;">O</text>
                        </g>
                    </g>
                    <g transform="matrix(-0.244874,-0.969555,0.969555,-0.244874,-880.06399,3762.705244)">
                        <g transform="matrix(1,0,0,1,1025.236,2224.066)">
                            <text x="0px" y="0px" style="font-family:'Castellar', sans-serif;font-size:200px;fill:rgb(197,165,90);stroke:rgb(197,165,90);stroke-width:1px;">u</text>
                        </g>
                    </g>
                    <g transform="matrix(-0.017836,-0.999841,0.999841,-0.017836,-1009.580349,3007.275568)">
                        <g transform="matrix(1,0,0,1,972.264,1999.503)">
                            <text x="0px" y="0px" style="font-family:'Castellar', sans-serif;font-size:200px;fill:rgb(197,165,90);stroke:rgb(197,165,90);stroke-width:1px;">W</text>
                        </g>
                    </g>
                    <g transform="matrix(0.183758,-0.982971,0.982971,0.183758,-919.942407,2381.037606)">
                        <g transform="matrix(1,0,0,1,973.729,1744.446)">
                            <text x="0px" y="0px" style="font-family:'Castellar', sans-serif;font-size:200px;fill:rgb(197,165,90);stroke:rgb(197,165,90);stroke-width:1px;">A</text>
                        </g>
                    </g>
                    <g transform="matrix(0.373849,-0.92749,0.92749,0.373849,-780.407529,1903.40366)">
                        <g transform="matrix(1,0,0,1,1019.509,1529.693)">
                            <text x="0px" y="0px" style="font-family:'Castellar', sans-serif;font-size:200px;fill:rgb(197,165,90);stroke:rgb(197,165,90);stroke-width:1px;">C</text>
                        </g>
                    </g>
                    <g transform="matrix(0.548696,-0.836022,0.836022,0.548696,-618.510357,1524.272113)">
                        <g transform="matrix(1,0,0,1,1102.569,1335.018)">
                            <text x="0px" y="0px" style="font-family:'Castellar', sans-serif;font-size:200px;fill:rgb(197,165,90);stroke:rgb(197,165,90);stroke-width:1px;">o</text>
                        </g>
                    </g>
                    <g transform="matrix(0.703148,-0.711044,0.711044,0.703148,-448.403567,1217.794407)">
                        <g transform="matrix(1,0,0,1,1234.277,1145.923)">
                            <text x="0px" y="0px" style="font-family:'Castellar', sans-serif;font-size:200px;fill:rgb(197,165,90);stroke:rgb(197,165,90);stroke-width:1px;">r</text>
                        </g>
                    </g>
                    <g transform="matrix(0.816162,-0.577823,0.577823,0.816162,-323.001877,985.235962)">
                        <g transform="matrix(1,0,0,1,1386.853,1000.234)">
                            <text x="0px" y="0px" style="font-family:'Castellar', sans-serif;font-size:200px;fill:rgb(197,165,90);stroke:rgb(197,165,90);stroke-width:1px;">p</text>
                        </g>
                    </g>
                    <g transform="matrix(0.909513,-0.415676,0.415676,0.909513,-233.850448,720.256354)">
                        <g transform="matrix(1,0,0,1,1537.415,897.254)">
                            <text x="0px" y="0px" style="font-family:'Castellar', sans-serif;font-size:200px;fill:rgb(197,165,90);stroke:rgb(197,165,90);stroke-width:1px;">o</text>
                        </g>
                    </g>
                    <g transform="matrix(0.974324,-0.225148,0.225148,0.974324,-136.850181,414.639377)">
                        <g transform="matrix(1,0,0,1,1749.56,807.339)">
                            <text x="0px" y="0px" style="font-family:'Castellar', sans-serif;font-size:200px;fill:rgb(197,165,90);stroke:rgb(197,165,90);stroke-width:1px;">r</text>
                        </g>
                    </g>
                    <g transform="matrix(0.999459,-0.032888,0.032888,0.999459,-24.085874,64.762307)">
                        <g transform="matrix(1,0,0,1,1956.575,764.534)">
                            <text x="0px" y="0px" style="font-family:'Castellar', sans-serif;font-size:200px;fill:rgb(197,165,90);stroke:rgb(197,165,90);stroke-width:1px;">a</text>
                        </g>
                    </g>
                    <g transform="matrix(0.989716,0.143043,-0.143043,0.989716,131.276987,-301.635933)">
                        <g transform="matrix(1,0,0,1,2163.497,762.205)">
                            <text x="0px" y="0px" style="font-family:'Castellar', sans-serif;font-size:200px;fill:rgb(197,165,90);stroke:rgb(197,165,90);stroke-width:1px;">t</text>
                        </g>
                    </g>
                    <g transform="matrix(0.956288,0.292428,-0.292428,0.956288,336.435929,-655.600184)">
                        <g transform="matrix(1,0,0,1,2361.139,797.546)">
                            <text x="0px" y="0px" style="font-family:'Castellar', sans-serif;font-size:200px;fill:rgb(197,165,90);stroke:rgb(197,165,90);stroke-width:1px;">i</text>
                        </g>
                    </g>
                    <g transform="matrix(0.895244,0.445577,-0.445577,0.895244,633.843189,-1021.475766)">
                        <g transform="matrix(1,0,0,1,2489.325,837.276)">
                            <text x="0px" y="0px" style="font-family:'Castellar', sans-serif;font-size:200px;fill:rgb(197,165,90);stroke:rgb(197,165,90);stroke-width:1px;">o</text>
                        </g>
                    </g>
                    <g transform="matrix(0.781793,0.623538,-0.623538,0.781793,1176.899559,-1473.229935)">
                        <g transform="matrix(1,0,0,1,2693.368,944.913)">
                            <text x="0px" y="0px" style="font-family:'Castellar', sans-serif;font-size:200px;fill:rgb(197,165,90);stroke:rgb(197,165,90);stroke-width:1px;">n</text>
                        </g>
                    </g>
                </g>
            </g>
        </g>
        <g transform="matrix(1.170902,0,0,1.136318,-436.824242,0)">
            <g transform="matrix(1.150993,0,0,0.880036,-828.481144,-60.406611)">
                <g transform="matrix(-0.742006,-0.000041,0.000031,-1,5610.78125,3360.432778)">
                    <g transform="matrix(-0.606755,-0.794889,0.794889,-0.606755,-69.695915,5156.439917)">
                        <g transform="matrix(1,0,0,1,1240.64,2595.46)">
                            <text x="0px" y="0px" style="font-family:'Castellar', sans-serif;font-size:200px;fill:rgb(197,165,90);stroke:rgb(197,165,90);stroke-width:1px;">T</text>
                        </g>
                    </g>
                    <g transform="matrix(-0.441488,-0.897267,0.897267,-0.441488,-566.295445,4514.470632)">
                        <g transform="matrix(1,0,0,1,1121.889,2433.483)">
                            <text x="0px" y="0px" style="font-family:'Castellar', sans-serif;font-size:200px;fill:rgb(197,165,90);stroke:rgb(197,165,90);stroke-width:1px;">O</text>
                        </g>
                    </g>
                    <g transform="matrix(-0.244874,-0.969555,0.969555,-0.244874,-880.06399,3762.705244)">
                        <g transform="matrix(1,0,0,1,1025.236,2224.066)">
                            <text x="0px" y="0px" style="font-family:'Castellar', sans-serif;font-size:200px;fill:rgb(197,165,90);stroke:rgb(197,165,90);stroke-width:1px;">u</text>
                        </g>
                    </g>
                    <g transform="matrix(-0.017836,-0.999841,0.999841,-0.017836,-1009.580349,3007.275568)">
                        <g transform="matrix(1,0,0,1,972.264,1999.503)">
                            <text x="0px" y="0px" style="font-family:'Castellar', sans-serif;font-size:200px;fill:rgb(197,165,90);stroke:rgb(197,165,90);stroke-width:1px;">W</text>
                        </g>
                    </g>
                    <g transform="matrix(0.183758,-0.982971,0.982971,0.183758,-919.942407,2381.037606)">
                        <g transform="matrix(1,0,0,1,973.729,1744.446)">
                            <text x="0px" y="0px" style="font-family:'Castellar', sans-serif;font-size:200px;fill:rgb(197,165,90);stroke:rgb(197,165,90);stroke-width:1px;">A</text>
                        </g>
                    </g>
                    <g transform="matrix(0.373849,-0.92749,0.92749,0.373849,-780.407529,1903.40366)">
                        <g transform="matrix(1,0,0,1,1019.509,1529.693)">
                            <text x="0px" y="0px" style="font-family:'Castellar', sans-serif;font-size:200px;fill:rgb(197,165,90);stroke:rgb(197,165,90);stroke-width:1px;">C</text>
                        </g>
                    </g>
                    <g transform="matrix(0.548696,-0.836022,0.836022,0.548696,-618.510357,1524.272113)">
                        <g transform="matrix(1,0,0,1,1102.569,1335.018)">
                            <text x="0px" y="0px" style="font-family:'Castellar', sans-serif;font-size:200px;fill:rgb(197,165,90);stroke:rgb(197,165,90);stroke-width:1px;">o</text>
                        </g>
                    </g>
                    <g transform="matrix(0.703148,-0.711044,0.711044,0.703148,-448.403567,1217.794407)">
                        <g transform="matrix(1,0,0,1,1234.277,1145.923)">
                            <text x="0px" y="0px" style="font-family:'Castellar', sans-serif;font-size:200px;fill:rgb(197,165,90);stroke:rgb(197,165,90);stroke-width:1px;">r</text>
                        </g>
                    </g>
                    <g transform="matrix(0.816162,-0.577823,0.577823,0.816162,-323.001877,985.235962)">
                        <g transform="matrix(1,0,0,1,1386.853,1000.234)">
                            <text x="0px" y="0px" style="font-family:'Castellar', sans-serif;font-size:200px;fill:rgb(197,165,90);stroke:rgb(197,165,90);stroke-width:1px;">p</text>
                        </g>
                    </g>
                    <g transform="matrix(0.909513,-0.415676,0.415676,0.909513,-233.850448,720.256354)">
                        <g transform="matrix(1,0,0,1,1537.415,897.254)">
                            <text x="0px" y="0px" style="font-family:'Castellar', sans-serif;font-size:200px;fill:rgb(197,165,90);stroke:rgb(197,165,90);stroke-width:1px;">o</text>
                        </g>
                    </g>
                    <g transform="matrix(0.974324,-0.225148,0.225148,0.974324,-136.850181,414.639377)">
                        <g transform="matrix(1,0,0,1,1749.56,807.339)">
                            <text x="0px" y="0px" style="font-family:'Castellar', sans-serif;font-size:200px;fill:rgb(197,165,90);stroke:rgb(197,165,90);stroke-width:1px;">r</text>
                        </g>
                    </g>
                    <g transform="matrix(0.999459,-0.032888,0.032888,0.999459,-24.085874,64.762307)">
                        <g transform="matrix(1,0,0,1,1956.575,764.534)">
                            <text x="0px" y="0px" style="font-family:'Castellar', sans-serif;font-size:200px;fill:rgb(197,165,90);stroke:rgb(197,165,90);stroke-width:1px;">a</text>
                        </g>
                    </g>
                    <g transform="matrix(0.989716,0.143043,-0.143043,0.989716,131.276987,-301.635933)">
                        <g transform="matrix(1,0,0,1,2163.497,762.205)">
                            <text x="0px" y="0px" style="font-family:'Castellar', sans-serif;font-size:200px;fill:rgb(197,165,90);stroke:rgb(197,165,90);stroke-width:1px;">t</text>
                        </g>
                    </g>
                    <g transform="matrix(0.956288,0.292428,-0.292428,0.956288,336.435929,-655.600184)">
                        <g transform="matrix(1,0,0,1,2361.139,797.546)">
                            <text x="0px" y="0px" style="font-family:'Castellar', sans-serif;font-size:200px;fill:rgb(197,165,90);stroke:rgb(197,165,90);stroke-width:1px;">i</text>
                        </g>
                    </g>
                    <g transform="matrix(0.895244,0.445577,-0.445577,0.895244,633.843189,-1021.475766)">
                        <g transform="matrix(1,0,0,1,2489.325,837.276)">
                            <text x="0px" y="0px" style="font-family:'Castellar', sans-serif;font-size:200px;fill:rgb(197,165,90);stroke:rgb(197,165,90);stroke-width:1px;">o</text>
                        </g>
                    </g>
                    <g transform="matrix(0.781793,0.623538,-0.623538,0.781793,1176.899559,-1473.229935)">
                        <g transform="matrix(1,0,0,1,2693.368,944.913)">
                            <text x="0px" y="0px" style="font-family:'Castellar', sans-serif;font-size:200px;fill:rgb(197,165,90);stroke:rgb(197,165,90);stroke-width:1px;">n</text>
                        </g>
                    </g>
                </g>
            </g>
        </g>
        <g transform="matrix(1.170902,0,0,1.136318,-436.824242,0)">
            <g transform="matrix(0.872222,0,0,0.898768,324.807096,-94.139995)">
                <path d="M4058.333,174.413C4787.889,174.413 5380.196,766.719 5380.196,1496.275C5380.196,2225.831 4787.889,2818.138 4058.333,2818.138C3328.778,2818.138 2736.471,2225.831 2736.471,1496.275C2736.471,766.719 3328.778,174.413 4058.333,174.413ZM4058.333,495.159C4610.865,495.159 5059.45,943.744 5059.45,1496.275C5059.45,2048.806 4610.865,2497.392 4058.333,2497.392C3505.802,2497.392 3057.217,2048.806 3057.217,1496.275C3057.217,943.744 3505.802,495.159 4058.333,495.159Z" style="fill:none;stroke:rgb(197,165,90);stroke-width:19.58px;stroke-linecap:round;stroke-miterlimit:1.5;"/>
            </g>
        </g>
        <g transform="matrix(1.170902,0,0,1.136318,-436.824242,0)">
            <g transform="matrix(0.854043,0,0,0.880036,396.87297,-63.275395)">
                <path d="M4058.333,174.413C4787.889,174.413 5380.196,766.719 5380.196,1496.275C5380.196,2225.831 4787.889,2818.138 4058.333,2818.138C3328.778,2818.138 2736.471,2225.831 2736.471,1496.275C2736.471,766.719 3328.778,174.413 4058.333,174.413ZM4058.333,446.561C4637.687,446.561 5108.048,916.922 5108.048,1496.275C5108.048,2075.628 4637.687,2545.99 4058.333,2545.99C3478.98,2545.99 3008.619,2075.628 3008.619,1496.275C3008.619,916.922 3478.98,446.561 4058.333,446.561Z" style="fill:none;stroke:rgb(197,165,90);stroke-width:8px;stroke-linecap:round;stroke-miterlimit:1.5;"/>
            </g>
        </g>
    </g>
</svg>
