<?xml version="1.0" encoding="UTF-8" standalone="no"?>
<!DOCTYPE svg PUBLIC "-//W3C//DTD SVG 1.1//EN" "http://www.w3.org/Graphics/SVG/1.1/DTD/svg11.dtd">
<svg width="100%" height="100%" viewBox="0 0 2506 2507" version="1.1" xmlns="http://www.w3.org/2000/svg" xmlns:xlink="http://www.w3.org/1999/xlink" xml:space="preserve" xmlns:serif="http://www.serif.com/" style="fill-rule:evenodd;clip-rule:evenodd;stroke-linejoin:round;stroke-miterlimit:2;">
    <g transform="matrix(1,0,0,1,-3156.531726,-239.999059)">
        <g transform="matrix(1.347699,0,0,1,-1076.178167,0)">
            <g transform="matrix(0.742006,0,0,1,2529.715982,-374.318563)">
                <g transform="matrix(-0.606755,-0.794889,0.794889,-0.606755,-69.695915,5156.439917)">
                    <text x="1240.64px" y="2595.46px" style="font-family:'Castellar', sans-serif;font-size:200px;fill:rgb(197,165,90);stroke:rgb(197,165,90);stroke-width:1px;">T</text>
                </g>
                <g transform="matrix(-0.441488,-0.897267,0.897267,-0.441488,-566.295445,4514.470632)">
                    <text x="1121.889px" y="2433.483px" style="font-family:'Castellar', sans-serif;font-size:200px;fill:rgb(197,165,90);stroke:rgb(197,165,90);stroke-width:1px;">O</text>
                </g>
                <g transform="matrix(-0.244874,-0.969555,0.969555,-0.244874,-880.06399,3762.705244)">
                    <text x="1025.236px" y="2224.066px" style="font-family:'Castellar', sans-serif;font-size:200px;fill:rgb(197,165,90);stroke:rgb(197,165,90);stroke-width:1px;">u</text>
                </g>
                <g transform="matrix(-0.017836,-0.999841,0.999841,-0.017836,-1009.580349,3007.275568)">
                    <text x="972.264px" y="1999.503px" style="font-family:'Castellar', sans-serif;font-size:200px;fill:rgb(197,165,90);stroke:rgb(197,165,90);stroke-width:1px;">W</text>
                </g>
                <g transform="matrix(0.183758,-0.982971,0.982971,0.183758,-919.942407,2381.037606)">
                    <text x="973.729px" y="1744.446px" style="font-family:'Castellar', sans-serif;font-size:200px;fill:rgb(197,165,90);stroke:rgb(197,165,90);stroke-width:1px;">A</text>
                </g>
                <g transform="matrix(0.373849,-0.92749,0.92749,0.373849,-780.407529,1903.40366)">
                    <text x="1019.509px" y="1529.693px" style="font-family:'Castellar', sans-serif;font-size:200px;fill:rgb(197,165,90);stroke:rgb(197,165,90);stroke-width:1px;">C</text>
                </g>
                <g transform="matrix(0.548696,-0.836022,0.836022,0.548696,-618.510357,1524.272113)">
                    <text x="1102.569px" y="1335.018px" style="font-family:'Castellar', sans-serif;font-size:200px;fill:rgb(197,165,90);stroke:rgb(197,165,90);stroke-width:1px;">o</text>
                </g>
                <g transform="matrix(0.703148,-0.711044,0.711044,0.703148,-448.403567,1217.794407)">
                    <text x="1234.277px" y="1145.923px" style="font-family:'Castellar', sans-serif;font-size:200px;fill:rgb(197,165,90);stroke:rgb(197,165,90);stroke-width:1px;">r</text>
                </g>
                <g transform="matrix(0.816162,-0.577823,0.577823,0.816162,-323.001877,985.235962)">
                    <text x="1386.853px" y="1000.234px" style="font-family:'Castellar', sans-serif;font-size:200px;fill:rgb(197,165,90);stroke:rgb(197,165,90);stroke-width:1px;">p</text>
                </g>
                <g transform="matrix(0.909513,-0.415676,0.415676,0.909513,-233.850448,720.256354)">
                    <text x="1537.415px" y="897.254px" style="font-family:'Castellar', sans-serif;font-size:200px;fill:rgb(197,165,90);stroke:rgb(197,165,90);stroke-width:1px;">o</text>
                </g>
                <g transform="matrix(0.974324,-0.225148,0.225148,0.974324,-136.850181,414.639377)">
                    <text x="1749.56px" y="807.339px" style="font-family:'Castellar', sans-serif;font-size:200px;fill:rgb(197,165,90);stroke:rgb(197,165,90);stroke-width:1px;">r</text>
                </g>
                <g transform="matrix(0.999459,-0.032888,0.032888,0.999459,-24.085874,64.762307)">
                    <text x="1956.575px" y="764.534px" style="font-family:'Castellar', sans-serif;font-size:200px;fill:rgb(197,165,90);stroke:rgb(197,165,90);stroke-width:1px;">a</text>
                </g>
                <g transform="matrix(0.989716,0.143043,-0.143043,0.989716,131.276987,-301.635933)">
                    <text x="2163.497px" y="762.205px" style="font-family:'Castellar', sans-serif;font-size:200px;fill:rgb(197,165,90);stroke:rgb(197,165,90);stroke-width:1px;">t</text>
                </g>
                <g transform="matrix(0.956288,0.292428,-0.292428,0.956288,336.435929,-655.600184)">
                    <text x="2361.139px" y="797.546px" style="font-family:'Castellar', sans-serif;font-size:200px;fill:rgb(197,165,90);stroke:rgb(197,165,90);stroke-width:1px;">i</text>
                </g>
                <g transform="matrix(0.895244,0.445577,-0.445577,0.895244,633.843189,-1021.475766)">
                    <text x="2489.325px" y="837.276px" style="font-family:'Castellar', sans-serif;font-size:200px;fill:rgb(197,165,90);stroke:rgb(197,165,90);stroke-width:1px;">o</text>
                </g>
                <g transform="matrix(0.781793,0.623538,-0.623538,0.781793,1176.899559,-1473.229935)">
                    <text x="2693.368px" y="944.913px" style="font-family:'Castellar', sans-serif;font-size:200px;fill:rgb(197,165,90);stroke:rgb(197,165,90);stroke-width:1px;">n</text>
                </g>
            </g>
        </g>
        <g transform="matrix(1.347699,0,0,1,-1076.178167,0)">
            <g transform="matrix(-0.742006,-0.000041,0.000031,-1,5610.78125,3360.432778)">
                <g transform="matrix(-0.606755,-0.794889,0.794889,-0.606755,-69.695915,5156.439917)">
                    <text x="1240.64px" y="2595.46px" style="font-family:'Castellar', sans-serif;font-size:200px;fill:rgb(197,165,90);stroke:rgb(197,165,90);stroke-width:1px;">T</text>
                </g>
                <g transform="matrix(-0.441488,-0.897267,0.897267,-0.441488,-566.295445,4514.470632)">
                    <text x="1121.889px" y="2433.483px" style="font-family:'Castellar', sans-serif;font-size:200px;fill:rgb(197,165,90);stroke:rgb(197,165,90);stroke-width:1px;">O</text>
                </g>
                <g transform="matrix(-0.244874,-0.969555,0.969555,-0.244874,-880.06399,3762.705244)">
                    <text x="1025.236px" y="2224.066px" style="font-family:'Castellar', sans-serif;font-size:200px;fill:rgb(197,165,90);stroke:rgb(197,165,90);stroke-width:1px;">u</text>
                </g>
                <g transform="matrix(-0.017836,-0.999841,0.999841,-0.017836,-1009.580349,3007.275568)">
                    <text x="972.264px" y="1999.503px" style="font-family:'Castellar', sans-serif;font-size:200px;fill:rgb(197,165,90);stroke:rgb(197,165,90);stroke-width:1px;">W</text>
                </g>
                <g transform="matrix(0.183758,-0.982971,0.982971,0.183758,-919.942407,2381.037606)">
                    <text x="973.729px" y="1744.446px" style="font-family:'Castellar', sans-serif;font-size:200px;fill:rgb(197,165,90);stroke:rgb(197,165,90);stroke-width:1px;">A</text>
                </g>
                <g transform="matrix(0.373849,-0.92749,0.92749,0.373849,-780.407529,1903.40366)">
                    <text x="1019.509px" y="1529.693px" style="font-family:'Castellar', sans-serif;font-size:200px;fill:rgb(197,165,90);stroke:rgb(197,165,90);stroke-width:1px;">C</text>
                </g>
                <g transform="matrix(0.548696,-0.836022,0.836022,0.548696,-618.510357,1524.272113)">
                    <text x="1102.569px" y="1335.018px" style="font-family:'Castellar', sans-serif;font-size:200px;fill:rgb(197,165,90);stroke:rgb(197,165,90);stroke-width:1px;">o</text>
                </g>
                <g transform="matrix(0.703148,-0.711044,0.711044,0.703148,-448.403567,1217.794407)">
                    <text x="1234.277px" y="1145.923px" style="font-family:'Castellar', sans-serif;font-size:200px;fill:rgb(197,165,90);stroke:rgb(197,165,90);stroke-width:1px;">r</text>
                </g>
                <g transform="matrix(0.816162,-0.577823,0.577823,0.816162,-323.001877,985.235962)">
                    <text x="1386.853px" y="1000.234px" style="font-family:'Castellar', sans-serif;font-size:200px;fill:rgb(197,165,90);stroke:rgb(197,165,90);stroke-width:1px;">p</text>
                </g>
                <g transform="matrix(0.909513,-0.415676,0.415676,0.909513,-233.850448,720.256354)">
                    <text x="1537.415px" y="897.254px" style="font-family:'Castellar', sans-serif;font-size:200px;fill:rgb(197,165,90);stroke:rgb(197,165,90);stroke-width:1px;">o</text>
                </g>
                <g transform="matrix(0.974324,-0.225148,0.225148,0.974324,-136.850181,414.639377)">
                    <text x="1749.56px" y="807.339px" style="font-family:'Castellar', sans-serif;font-size:200px;fill:rgb(197,165,90);stroke:rgb(197,165,90);stroke-width:1px;">r</text>
                </g>
                <g transform="matrix(0.999459,-0.032888,0.032888,0.999459,-24.085874,64.762307)">
                    <text x="1956.575px" y="764.534px" style="font-family:'Castellar', sans-serif;font-size:200px;fill:rgb(197,165,90);stroke:rgb(197,165,90);stroke-width:1px;">a</text>
                </g>
                <g transform="matrix(0.989716,0.143043,-0.143043,0.989716,131.276987,-301.635933)">
                    <text x="2163.497px" y="762.205px" style="font-family:'Castellar', sans-serif;font-size:200px;fill:rgb(197,165,90);stroke:rgb(197,165,90);stroke-width:1px;">t</text>
                </g>
                <g transform="matrix(0.956288,0.292428,-0.292428,0.956288,336.435929,-655.600184)">
                    <text x="2361.139px" y="797.546px" style="font-family:'Castellar', sans-serif;font-size:200px;fill:rgb(197,165,90);stroke:rgb(197,165,90);stroke-width:1px;">i</text>
                </g>
                <g transform="matrix(0.895244,0.445577,-0.445577,0.895244,633.843189,-1021.475766)">
                    <text x="2489.325px" y="837.276px" style="font-family:'Castellar', sans-serif;font-size:200px;fill:rgb(197,165,90);stroke:rgb(197,165,90);stroke-width:1px;">o</text>
                </g>
                <g transform="matrix(0.781793,0.623538,-0.623538,0.781793,1176.899559,-1473.229935)">
                    <text x="2693.368px" y="944.913px" style="font-family:'Castellar', sans-serif;font-size:200px;fill:rgb(197,165,90);stroke:rgb(197,165,90);stroke-width:1px;">n</text>
                </g>
            </g>
        </g>
    </g>
</svg>
